<?xml version="1.0" standalone="no"?>
<!DOCTYPE svg PUBLIC "-//W3C//DTD SVG 20010904//EN"
 "http://www.w3.org/TR/2001/REC-SVG-20010904/DTD/svg10.dtd">
<svg version="1.0" xmlns="http://www.w3.org/2000/svg"
 width="512.000000pt" height="512.000000pt" viewBox="0 0 512.000000 512.000000"
 preserveAspectRatio="xMidYMid meet">
<metadata>
Created by potrace 1.16, written by Peter Selinger 2001-2019
</metadata>
<g transform="translate(0.000000,512.000000) scale(0.100000,-0.100000)"
fill="#000000" stroke="none">
<path d="M2430 4594 c-110 -20 -187 -41 -259 -70 -319 -128 -520 -393 -571
-755 -11 -73 -17 -89 -45 -119 -57 -61 -60 -72 -57 -230 3 -190 23 -339 50
-377 11 -15 25 -48 32 -73 17 -64 54 -148 96 -220 32 -55 34 -63 21 -78 -68
-78 -61 -189 17 -266 l42 -42 -93 -53 c-103 -58 -120 -77 -104 -122 10 -29 8
-30 -54 -70 -36 -22 -90 -68 -121 -102 -87 -96 -182 -308 -219 -488 -8 -41
-17 -85 -21 -99 -14 -64 28 16 96 180 89 217 142 319 199 382 49 55 139 120
153 112 22 -14 49 -136 72 -322 14 -111 14 -127 0 -160 -14 -35 -16 -36 -29
-18 -17 23 -30 110 -29 198 0 57 -2 66 -13 56 -63 -52 -66 -190 -6 -371 14
-43 22 -81 18 -85 -3 -4 -36 23 -71 60 -36 37 -63 62 -60 55 16 -39 28 -88 23
-93 -3 -3 -48 12 -99 35 -92 40 -93 40 -58 11 19 -17 84 -54 143 -84 l108 -54
-56 -7 c-31 -3 -75 -13 -98 -20 -56 -17 -25 -18 118 -4 82 9 113 16 120 28 6
9 10 53 10 99 0 78 2 85 27 107 15 12 31 24 37 26 21 8 -49 468 -83 551 l-15
35 80 38 c45 21 84 34 88 29 5 -5 18 -40 31 -79 12 -38 35 -98 52 -131 35 -72
124 -183 170 -213 l33 -21 -67 0 c-94 0 -108 -15 -108 -115 0 -67 2 -75 19
-75 16 0 19 9 23 65 6 105 -10 99 332 103 259 3 294 1 306 -13 11 -13 11 -19
-4 -33 -15 -15 -47 -17 -301 -17 -193 0 -285 -3 -285 -11 0 -31 26 -34 257
-34 l233 0 0 -59 c0 -43 4 -60 15 -65 12 -4 15 6 15 59 l0 65 48 0 c62 0 80
-15 84 -68 3 -42 3 -42 26 -27 20 15 22 24 22 98 0 81 1 82 33 108 33 27 194
203 167 183 -8 -6 -54 -39 -103 -74 l-87 -63 -90 -5 c-107 -6 -102 -22 -65
182 14 77 25 141 25 143 0 1 14 18 31 37 22 26 56 45 126 72 157 61 259 139
386 297 153 189 226 324 267 488 12 46 30 101 41 122 18 33 21 58 22 215 l2
177 -32 57 c-22 42 -33 77 -38 125 -32 339 -107 476 -340 626 -170 109 -326
163 -480 167 -90 3 -112 -2 -48 -11 151 -19 300 -75 419 -157 88 -60 197 -176
252 -269 68 -113 89 -181 172 -568 5 -22 9 -52 10 -67 l0 -28 -62 46 c-323
238 -835 300 -1254 153 -160 -56 -288 -127 -426 -237 -90 -72 -88 -74 -88 89
0 92 3 110 20 130 l19 24 1 -64 0 -63 23 15 c12 8 22 18 23 23 0 5 3 23 7 39
4 17 11 82 17 145 14 152 40 255 95 367 100 204 245 333 466 414 304 111 607
67 886 -130 206 -146 278 -270 336 -590 13 -69 23 -94 59 -145 l43 -61 3 -180
c2 -108 -1 -191 -7 -207 -6 -15 -30 -41 -53 -58 -52 -38 -55 -56 -9 -52 50 4
89 31 112 79 19 40 21 57 17 236 l-3 192 -43 63 c-39 57 -45 73 -66 195 -28
156 -53 233 -103 319 -105 179 -368 368 -598 429 -78 20 -312 35 -375 23z
m410 -1021 l75 -19 -145 -49 c-87 -29 -164 -48 -191 -48 -38 -1 -46 -4 -41
-16 19 -56 90 -56 243 0 132 48 167 55 210 40 l33 -11 -24 25 c-14 15 -18 25
-11 25 25 0 152 -73 164 -94 17 -31 14 -232 -5 -276 -22 -51 -67 -101 -107
-117 -79 -33 -181 -13 -401 81 -47 19 -101 36 -121 36 -42 0 -118 -25 -209
-70 -138 -68 -288 -86 -374 -45 -75 36 -106 105 -121 271 l-7 70 54 36 c74 49
133 78 159 78 12 0 85 -20 163 -45 194 -61 218 -64 250 -32 35 35 33 47 -7 40
-31 -5 -301 60 -320 77 -8 7 160 52 238 64 17 2 118 3 225 1 152 -2 212 -7
270 -22z m429 -283 c0 -69 -24 -190 -48 -240 -54 -115 -175 -229 -296 -279
-121 -51 -209 -64 -410 -64 -167 -1 -227 6 -375 38 -42 9 80 -45 170 -76 105
-35 74 -38 -46 -4 -213 61 -441 221 -501 353 -26 55 -52 179 -53 246 0 57 6
43 29 -64 36 -164 102 -264 213 -321 311 -159 733 -188 987 -67 88 42 198 149
245 238 38 72 66 185 66 268 0 34 3 43 10 32 5 -8 10 -35 9 -60z m78 -75 c-17
-276 -115 -507 -302 -710 l-47 -50 55 75 c159 219 235 403 267 640 19 140 21
150 27 150 3 0 3 -47 0 -105z m-1735 18 c9 -10 21 -45 28 -78 20 -97 60 -214
100 -295 96 -191 279 -372 475 -468 191 -94 294 -106 427 -48 100 43 252 145
348 233 77 70 78 66 1 -26 -80 -96 -259 -213 -390 -256 -73 -24 -181 -16 -281
20 -376 136 -617 396 -716 774 -35 134 -32 189 8 144z m896 -211 c2 -28 -2
-61 -8 -73 -37 -67 -316 -110 -453 -69 -44 13 -40 30 8 30 52 0 148 34 295
105 74 36 139 64 145 62 5 -2 11 -27 13 -55z m-593 -258 c102 -75 302 -158
468 -194 l92 -20 -95 5 c-185 9 -346 69 -458 170 -82 75 -86 98 -7 39z m-15
-294 c108 -106 194 -160 376 -235 133 -54 173 -93 204 -193 22 -71 38 -236 24
-244 -5 -2 -81 -1 -169 3 -232 10 -309 39 -354 133 -18 35 -101 302 -101 321
0 3 44 -17 98 -43 53 -27 151 -71 217 -97 128 -51 174 -77 243 -134 l44 -35
-17 40 c-41 98 -80 126 -285 204 -185 71 -375 186 -435 264 -35 47 -44 110
-20 156 l18 34 30 -40 c16 -21 74 -82 127 -134z m51 -17 c13 -16 12 -17 -3 -4
-10 7 -18 15 -18 17 0 8 8 3 21 -13z m-133 -145 c7 -7 12 -15 12 -19 0 -4 -44
-31 -97 -59 -89 -46 -99 -49 -110 -34 -7 9 -10 21 -7 25 6 11 166 99 180 99 5
0 15 -5 22 -12z"/>
<path d="M2085 3433 c-36 -9 -81 -50 -100 -92 -10 -23 -16 -43 -14 -46 3 -2
27 7 54 20 40 21 63 25 130 25 48 0 100 -6 125 -15 54 -19 70 -19 70 1 0 56
-179 128 -265 107z"/>
<path d="M2757 3419 c-90 -26 -127 -45 -127 -68 0 -34 23 -43 66 -25 60 25
179 30 244 10 30 -10 61 -20 68 -22 18 -8 15 23 -5 57 -22 37 -87 69 -139 68
-21 0 -70 -9 -107 -20z"/>
<path d="M2762 3320 c-36 -22 -72 -74 -72 -106 0 -21 39 -63 77 -83 12 -6 47
-11 77 -11 47 0 61 4 88 29 102 91 -50 244 -170 171z m162 -62 c21 -30 20 -44
-4 -68 -24 -24 -40 -18 -40 15 0 13 -4 27 -10 30 -5 3 -10 15 -10 26 0 27 44
25 64 -3z"/>
<path d="M2108 3310 c-80 -44 -101 -111 -48 -160 57 -53 151 -47 218 14 34 31
35 35 23 63 -35 84 -122 122 -193 83z m-18 -69 c17 -32 12 -61 -10 -61 -27 0
-44 34 -30 60 13 25 26 25 40 1z m188 -17 c2 -11 -4 -27 -13 -34 -12 -10 -15
-10 -15 1 0 8 -3 25 -7 38 -5 19 -2 22 13 19 10 -2 20 -13 22 -24z"/>
<path d="M2412 3839 c-168 -16 -330 -66 -497 -153 -107 -55 -268 -156 -262
-162 2 -3 49 24 103 58 191 119 340 183 529 224 119 26 349 24 480 -5 116 -24
262 -71 355 -112 91 -40 44 -7 -65 46 -110 54 -249 92 -381 105 -112 11 -144
11 -262 -1z"/>
<path d="M3190 3656 c0 -3 9 -10 20 -16 11 -6 20 -8 20 -6 0 3 -9 10 -20 16
-11 6 -20 8 -20 6z"/>
<path d="M3514 2927 c-22 -62 -49 -130 -58 -152 -32 -70 8 -22 47 58 31 63 67
191 56 201 -2 2 -22 -46 -45 -107z"/>
<path d="M3450 2702 c0 -12 -7 -33 -15 -45 -11 -18 -12 -31 -5 -57 14 -48 -1
-88 -53 -137 -85 -83 -309 -206 -526 -290 -129 -50 -161 -69 -190 -117 -27
-42 -28 -65 -3 -44 26 24 86 52 243 114 79 31 192 81 251 110 59 30 110 54
113 54 6 0 1 -37 -35 -255 -16 -93 -32 -195 -35 -225 -4 -30 -13 -70 -21 -87
-11 -28 -18 -33 -46 -33 -18 0 -87 -3 -153 -6 -132 -6 -155 -15 -189 -73 -21
-36 -15 -51 14 -33 15 9 123 12 418 12 374 0 400 -1 415 -18 10 -10 17 -25 17
-34 0 -13 -28 -16 -187 -21 -262 -8 -415 -46 -542 -135 -56 -39 -139 -128
-129 -138 4 -3 34 17 68 45 165 133 338 181 650 181 203 0 214 -4 208 -84 -7
-91 -128 -579 -149 -601 -19 -19 -35 -20 -405 -24 -257 -2 -389 0 -396 7 -7 7
-8 32 -4 65 l7 55 60 23 c67 24 163 84 194 119 16 18 4 14 -65 -20 -47 -24
-116 -53 -155 -66 l-70 -22 -10 -78 c-8 -64 -13 -79 -28 -82 -14 -3 -18 1 -14
15 3 10 8 59 12 108 8 116 11 125 40 125 67 0 225 83 293 153 33 33 30 33 -90
-27 -68 -34 -144 -66 -170 -72 l-46 -11 5 71 c7 95 -10 174 -53 237 -33 50
-34 53 -18 76 21 32 79 56 118 49 36 -8 76 -43 76 -67 0 -30 18 -31 54 -4 19
14 65 39 103 55 l68 29 -95 1 c-56 1 -112 7 -135 15 -57 21 -114 19 -154 -6
-43 -26 -72 -60 -66 -77 6 -15 -4 -10 -61 33 -22 17 -65 42 -95 55 -53 24 -61
25 -339 28 -305 4 -340 0 -383 -44 -29 -29 -42 -87 -29 -124 7 -20 4 -31 -13
-55 -36 -48 -37 -66 -16 -212 12 -76 27 -194 35 -262 9 -78 19 -127 28 -132 7
-5 415 -9 906 -9 926 0 943 1 967 40 4 6 17 53 30 103 13 50 28 93 33 95 5 1
18 9 28 17 18 14 18 15 -3 32 l-22 18 50 197 c47 188 49 199 35 233 -8 19 -29
43 -45 53 -24 13 -29 21 -24 43 7 34 -11 67 -43 79 -25 10 -25 12 -19 82 l7
73 -35 -40 -35 -40 5 91 c6 97 -5 150 -36 178 -18 16 -18 13 -23 -81 -5 -111
-25 -163 -60 -163 -21 0 -21 2 -15 108 6 90 58 397 70 408 10 10 135 -66 189
-115 78 -71 116 -131 192 -305 105 -239 151 -336 154 -326 6 17 -47 216 -83
310 -93 243 -185 364 -334 438 -93 47 -107 50 -114 25 -3 -12 -5 -9 -6 8 -1
34 -24 53 -91 79 l-55 21 56 57 c84 87 98 175 40 264 -19 30 -21 31 -21 10z
m-42 -392 c27 -12 42 -26 42 -37 0 -10 -11 -81 -25 -157 -14 -77 -25 -144 -25
-148 0 -13 -85 -9 -102 5 -14 11 -13 27 13 157 15 80 28 157 28 173 1 32 12
33 69 7z m-19 -376 c6 -5 -29 -235 -39 -255 -9 -16 -22 -19 -87 -19 l-76 0 22
24 c26 27 35 59 52 178 l12 88 56 -6 c31 -4 58 -8 60 -10z m156 -309 c6 -2
-151 -4 -347 -4 -197 0 -358 4 -358 8 0 8 683 4 705 -4z m-1131 -120 c132 -35
233 -138 251 -256 l7 -47 -74 73 c-132 129 -219 160 -474 170 -212 9 -277 -1
-330 -47 l-34 -30 0 39 c0 22 6 46 13 54 35 43 42 44 296 49 135 3 255 7 266
8 12 1 47 -5 79 -13z m-70 -111 c124 -32 226 -105 300 -215 27 -41 36 -64 36
-96 0 -35 -3 -43 -18 -43 -34 0 -136 31 -169 52 -19 11 -36 18 -39 15 -11 -10
74 -69 129 -89 32 -11 62 -29 67 -38 5 -10 5 -52 0 -106 -5 -49 -10 -95 -10
-102 0 -10 -90 -12 -432 -10 l-433 3 -23 233 c-13 129 -21 244 -18 258 9 36
99 120 148 137 63 22 377 23 462 1z"/>
<path d="M1887 994 c-4 -4 -7 -13 -7 -21 0 -10 43 -13 216 -13 200 0 215 1
212 18 -3 15 -22 17 -209 20 -113 1 -208 -1 -212 -4z"/>
<path d="M3283 2596 c-95 -80 -190 -175 -158 -158 42 22 255 203 255 217 0 8
-2 15 -5 15 -2 0 -44 -33 -92 -74z"/>
<path d="M3835 1626 c-59 -40 -115 -96 -95 -96 12 0 144 103 156 121 11 18
-12 8 -61 -25z"/>
</g>
</svg>